<svg width="30" height="31" viewBox="0 0 30 31" fill="none" xmlns="http://www.w3.org/2000/svg">
<path fill-rule="evenodd" clip-rule="evenodd" d="M5.35875 28.0098L2.13435 23.993C1.35856 23.0265 0.9375 21.8381 0.9375 20.6149V6.06971C0.9375 4.23752 2.40336 2.7172 4.29442 2.58809L19.2489 1.56709C20.3353 1.49291 21.4151 1.78169 22.3076 2.38507L27.5618 5.93746C28.5023 6.57334 29.0625 7.61284 29.0625 8.72215V25.2586C29.0625 27.0517 27.6211 28.5362 25.7696 28.6502L9.17187 29.6719C7.69437 29.7629 6.26624 29.1404 5.35875 28.0098Z" fill="white"/>
<path d="M10.5448 13.3482V13.1578C10.5448 12.6751 10.9314 12.2747 11.4297 12.2415L15.0591 11.9992L20.0782 19.3902V12.9033L18.7863 12.7311V12.6406C18.7863 12.1523 19.1818 11.7493 19.6864 11.7234L22.9887 11.5543V12.0295C22.9887 12.2526 22.8228 12.4434 22.5955 12.4819L21.8008 12.6163V23.1216L20.8034 23.4646C19.9702 23.7512 19.0426 23.4444 18.5656 22.7247L13.6929 15.3718V22.3897L15.1927 22.6767L15.1718 22.8158C15.1064 23.2516 14.7302 23.5812 14.2751 23.6014L10.5448 23.7674C10.4955 23.2989 10.8467 22.8796 11.3312 22.8287L11.8219 22.7772V13.42L10.5448 13.3482Z" fill="black"/>
<path fill-rule="evenodd" clip-rule="evenodd" d="M19.3825 3.39952L4.42801 4.42052C3.53225 4.48168 2.83789 5.20183 2.83789 6.06972V20.6149C2.83789 21.4304 3.1186 22.2227 3.63579 22.867L6.86019 26.8838C7.38152 27.5333 8.20193 27.8909 9.05071 27.8386L25.6485 26.8169C26.4992 26.7646 27.1614 26.0825 27.1614 25.2586V8.72216C27.1614 8.21247 26.904 7.73486 26.4719 7.4427L21.2177 3.89031C20.6822 3.52828 20.0343 3.35502 19.3825 3.39952ZM5.16957 6.2966C4.96158 6.14261 5.06056 5.8218 5.32185 5.80306L19.4831 4.78733C19.9343 4.75497 20.3826 4.87921 20.7475 5.13774L23.5888 7.15078C23.6967 7.22721 23.6461 7.39219 23.5126 7.39946L8.51589 8.21507C8.06204 8.23975 7.61406 8.10642 7.25321 7.83925L5.16957 6.2966ZM7.81248 10.772C7.81248 10.2848 8.20608 9.88232 8.70938 9.85491L24.5651 8.9914C25.0556 8.96469 25.4686 9.34192 25.4686 9.81674V24.1356C25.4686 24.6219 25.0764 25.0239 24.5741 25.0525L8.81871 25.949C8.27282 25.98 7.81248 25.5606 7.81248 25.0321V10.772Z" fill="black"/>
</svg>
